<svg width="104" height="24" viewBox="0 0 104 24" fill="none" xmlns="http://www.w3.org/2000/svg">
<g clip-path="url(#clip0_2321_1301)">
<path d="M39.4115 4.68335H42.2055V17.1799H39.4115V4.68335Z" fill="#272727"/>
<path d="M73.8607 4.68335H76.6547V17.1799H73.8607V4.68335Z" fill="#272727"/>
<path d="M45.3741 0H48.1681V17.18H45.3741V0Z" fill="#272727"/>
<path d="M84.8737 4.31891C81.3526 4.31891 78.5012 7.26652 78.4968 10.9066C78.4924 14.5467 81.3482 17.4943 84.8693 17.4989C88.3905 17.4989 91.2418 14.5513 91.2462 10.9112C91.2462 10.9112 91.2462 10.9112 91.2462 10.9066C91.2418 7.27107 88.3905 4.32346 84.8737 4.31891ZM84.8737 14.8201C82.8862 14.8201 81.2776 13.0706 81.2776 10.9066C81.2776 8.7426 82.8862 6.99317 84.8737 6.99317C86.8613 6.99317 88.4698 8.7426 88.4698 10.9066C88.4698 13.0706 86.8569 14.8201 84.8737 14.8201Z" fill="#272727"/>
<path d="M59.3222 4.67883V11.672C59.3178 13.3531 58.0662 14.7153 56.5193 14.7153C54.9725 14.7153 53.7165 13.3531 53.7165 11.672V4.67883H50.9225V11.672C50.9269 14.893 53.4036 17.5034 56.5193 17.508C59.6351 17.508 62.1074 14.8975 62.1118 11.6766V4.67883H59.3222Z" fill="#272727"/>
<path d="M95.5475 17.1891V10.1959C95.5519 8.51479 96.8034 7.1526 98.3503 7.1526C99.8971 7.1526 101.153 8.51479 101.153 10.1959V17.1891H103.996V10.1959C103.991 6.97492 101.466 4.36444 98.3503 4.36444C95.2346 4.36444 92.7094 6.97492 92.705 10.1959V17.1891H95.5475Z" fill="#272727"/>
<path d="M26.9662 4.68335H24.3L24.1722 5.80863C23.4847 5.12526 22.4182 4.32344 20.5761 4.32344C17.0549 4.29155 14.1772 7.21638 14.1508 10.8565C14.1243 14.4966 16.9492 17.4715 20.4703 17.4988H20.5761C22.286 17.4988 23.2644 16.779 24.1722 16.0547V17.2027C24.1722 19.4852 22.4711 21.3348 20.3734 21.3348C18.8706 21.3348 17.5221 20.3508 16.861 19.066L14.587 20.4237C15.7329 22.6287 17.9584 24.0045 20.3778 24.0045C24.0091 24.0045 26.9662 20.9658 26.9662 17.2118V4.68335ZM20.5761 14.82C18.5886 14.82 16.98 13.0706 16.98 10.9111C16.98 8.75169 18.5886 6.9977 20.5761 6.9977C22.5637 6.9977 24.1854 8.66057 24.1854 10.9066V10.9111C24.181 13.1799 22.5592 14.82 20.5761 14.82Z" fill="#272727"/>
<path d="M10.1492 4.68339L10.0214 5.80867C9.2722 4.98407 8.22334 4.32803 6.4253 4.32803C2.90414 4.29159 0.0307935 7.21642 -5.52876e-05 10.8565C-0.0309041 14.4966 2.79837 17.4715 6.31953 17.4989H6.4253C7.97655 17.4989 8.99897 16.7381 10.0214 16.0137L10.0919 17.18H12.811V4.68339H10.1492ZM6.4253 14.8201C4.43776 14.8201 2.82922 13.0706 2.82922 10.9112C2.82922 8.75172 4.43776 6.99774 6.4253 6.99774C8.41284 6.99774 10.0214 8.74717 10.0214 10.9066V10.9112C10.0214 13.0706 8.41284 14.8201 6.4253 14.8201Z" fill="#272727"/>
<path d="M68.6384 4.67427H71.124V7.34397H68.6384V13.0797C68.6384 14.3781 69.0483 14.5786 70.0002 14.5786C70.4012 14.5786 70.9477 14.5057 71.124 14.4556V16.9841C70.8243 17.1116 70.2205 17.2939 69.2422 17.2939C67.0916 17.2939 65.8577 15.6811 65.8577 13.2164V7.34853H63.6234V4.67882H64.3549C65.8092 4.67882 66.3601 3.84055 66.3601 2.53759V0.0136719H68.6384V4.67427Z" fill="#272727"/>
<path d="M37.3887 4.68339H35.714C34.0879 4.68339 33.0038 5.46699 32.4529 6.18225L32.4176 4.67883H29.6589V17.1754H32.4529V10.5558H32.4617C32.5146 8.80639 33.8279 7.4032 35.4496 7.39409H37.3887V4.68339Z" fill="#272727"/>
</g>
<defs>
<clipPath id="clip0_2321_1301">
<rect width="104" height="24" fill="white"/>
</clipPath>
</defs>
</svg>
